#!OML:ASF F:\VICON\USERDATA\INSTALL\rory3\rory3.ASF
:FULLY-SPECIFIED
:DEGREES
283
root 0.809792 17.8733 21.7014 -4.1235 -3.37574 0.803785
lowerback 10.0268 0.977043 -1.20592
upperback 1.44942 1.19218 0.584177
thorax -4.14932 0.61127 1.12597
lowerneck -15.0801 -2.54139 -2.11982
upperneck 18.6923 -3.2091 0.990178
head 8.34926 -1.56698 0.310954
rclavicle 7.97623e-015 6.16232e-015
rhumerus -27.9819 -17.8869 -80.6234
rradius 26.2482
rwrist 5.1779
rhand -18.5618 19.4129
rfingers 7.12502
rthumb 7.72814 -10.4258
lclavicle 7.97623e-015 6.16232e-015
lhumerus -33.0814 2.0709 81.7098
lradius 22.4841
lwrist 1.65582
lhand -25.7822 30.0548
lfingers 7.12502
lthumb 0.756114 60.0332
rfemur -22.0621 -2.65 20.9236
rtibia 75.2346
rfoot -4.46876 -5.27521
rtoes 9.68696
lfemur -8.74784 -1.20277 -25.4501
ltibia 29.8572
lfoot -14.3661 -1.192
ltoes 1.37688
284
root 0.813998 17.8689 21.8704 -4.01401 -3.05173 0.878588
lowerback 9.93165 0.836942 -1.30401
upperback 1.48627 0.998322 0.618352
thorax -4.05452 0.516259 1.24434
lowerneck -15.2917 -2.53543 -2.06137
upperneck 18.795 -3.19734 0.922341
head 8.41949 -1.56299 0.276804
rclavicle -8.85834e-015 7.95139e-016
rhumerus -28.2598 -17.7 -80.6594
rradius 26.4819
rwrist 4.5968
rhand -18.5213 19.8872
rfingers 7.12502
rthumb 7.76716 -9.95009
lclavicle -8.85834e-015 7.95139e-016
lhumerus -32.5778 1.78149 81.6653
lradius 23.1232
lwrist 1.42485
lhand -24.6531 32.2615
lfingers 7.12502
lthumb 1.84662 62.2333
rfemur -23.2697 -2.961 20.9524
rtibia 74.4998
rfoot -5.73815 -5.0644
rtoes 8.30575
lfemur -8.26256 -1.39019 -25.643
ltibia 29.9013
lfoot -14.6319 -1.14604
ltoes 2.29984
285
root 0.819287 17.8528 22.0395 -3.98332 -2.66742 1.11166
lowerback 9.93678 0.659825 -1.56756
upperback 1.48328 0.733816 0.592694
thorax -4.05485 0.389014 1.40139
lowerneck -15.2689 -2.40687 -1.95976
upperneck 18.8216 -3.0436 0.912571
head 8.41999 -1.48432 0.275055
rclavicle -7.76503e-015 -1.45113e-014
rhumerus -28.6753 -17.3118 -80.741
rradius 26.8094
rwrist 4.2186
rhand -18.5443 19.884
rfingers 7.12502
rthumb 7.74496 -9.95412
lclavicle -7.76503e-015 -1.45113e-014
lhumerus -32.228 1.24414 81.7265
lradius 23.5443
lwrist 2.25731
lhand -25.1916 30.9508
lfingers 7.12502
lthumb 1.3265 60.9264
rfemur -24.3287 -3.36609 20.7782
rtibia 73.6601
rfoot -6.91252 -4.8735
rtoes 6.50133
lfemur -7.69293 -1.5992 -26.0107
ltibia 29.9802
lfoot -15.1037 -1.16924
ltoes 2.93466
286
root 0.822179 17.829 22.2048 -3.87176 -2.39877 1.15677
lowerback 9.93041 0.518657 -1.62067
upperback 1.47848 0.541992 0.61964
thorax -4.05 0.295003 1.48494
lowerneck -14.9664 -2.39947 -2.05745
upperneck 18.5002 -3.03218 1.00747
head 8.26048 -1.47815 0.329381
rclavicle -1.6524e-015 -1.23246e-014
rhumerus -28.9625 -17.0593 -80.7702
rradius 27.0846
rwrist 4.0454
rhand -18.4895 19.5922
rfingers 7.12502
rthumb 7.79788 -10.244
lclavicle -1.6524e-015 -1.23246e-014
lhumerus -31.6194 0.649007 81.8366
lradius 23.5625
lwrist 3.43527
lhand -26.487 26.9039
lfingers 7.12502
lthumb 0.0754096 56.8836
rfemur -25.5267 -3.61624 20.8607
rtibia 72.7157
rfoot -7.78087 -4.83104
rtoes 5.16008
lfemur -7.23928 -1.72045 -26.1566
ltibia 30.0237
lfoot -15.6753 -0.922559
ltoes 2.07678
287
root 0.823169 17.8036 22.3794 -3.89373 -2.24238 1.47531
lowerback 9.88042 0.429676 -1.99422
upperback 1.5764 0.38469 0.602643
thorax -3.91644 0.220088 1.69902
lowerneck -14.8115 -2.46138 -2.21594
upperneck 18.1814 -3.09361 1.07705
head 8.13084 -1.51245 0.374928
rclavicle 5.7896e-015 1.39149e-014
rhumerus -29.0673 -16.922 -80.7903
rradius 27.1817
rwrist 4.0553
rhand -18.4173 19.8775
rfingers 7.12502
rthumb 7.86761 -9.95606
lclavicle 5.7896e-015 1.39149e-014
lhumerus -31.0743 0.186901 81.903
lradius 23.9097
lwrist 4.06814
lhand -27.5294 24.8988
lfingers 7.12502
lthumb -0.931415 54.8765
rfemur -26.4813 -3.72649 20.5967
rtibia 71.6204
rfoot -8.5305 -4.76509
rtoes 5.14944
lfemur -6.58047 -1.7667 -26.608
ltibia 30.0306
lfoot -16.2845 -0.663296
ltoes 1.68459
288
root 0.822865 17.7844 22.5544 -3.89473 -2.03671 1.84969
lowerback 9.88988 0.339183 -2.43504
upperback 1.58171 0.215941 0.560357
thorax -3.90993 0.142042 1.92576
lowerneck -15.0147 -2.45822 -2.18664
upperneck 18.4304 -3.09109 1.0574
head 8.24978 -1.50992 0.360227
rclavicle 5.49143e-015 9.54166e-015
rhumerus -29.3628 -16.4606 -80.8751
rradius 27.4012
rwrist 3.65095
rhand -18.4091 19.7855
rfingers 7.12502
rthumb 7.87552 -10.0478
lclavicle 5.49143e-015 9.54166e-015
lhumerus -30.758 -0.12695 81.8066
lradius 24.8296
lwrist 3.50655
lhand -26.4086 28.2658
lfingers 7.12502
lthumb 0.151126 58.2455
rfemur -27.3374 -3.98389 20.2727
rtibia 70.3106
rfoot -9.61892 -4.71701
rtoes 3.27435
lfemur -5.93449 -1.87805 -27.1243
ltibia 30.0212
lfoot -16.8947 -0.363213
ltoes 1.15661
289
root 0.820991 17.7781 22.719 -3.8014 -1.80485 1.90466
lowerback 10.0661 0.246631 -2.55599
upperback 1.5376 0.076957 0.600069
thorax -4.04681 0.0774688 2.05406
lowerneck -15.2522 -2.43739 -2.19983
upperneck 18.5857 -3.07394 1.14216
head 8.34592 -1.49253 0.38919
rclavicle -4.37326e-015 -9.93923e-015
rhumerus -29.7084 -16.2144 -80.8997
rradius 27.7466
rwrist 3.53377
rhand -18.4278 19.3297
rfingers 7.12502
rthumb 7.85749 -10.5043
lclavicle -4.37326e-015 -9.93923e-015
lhumerus -30.3066 -1.0502 81.9946
lradius 25.3443
lwrist 4.4385
lhand -26.7891 28.5585
lfingers 7.12502
lthumb -0.216365 58.5381
rfemur -28.2406 -4.17573 20.3701
rtibia 68.7529
rfoot -10.66 -4.9759
rtoes 0.793786
lfemur -5.36516 -2.12135 -27.2562
ltibia 29.8892
lfoot -17.2792 -0.16834
ltoes 1.1344
290
root 0.815755 17.771 22.8893 -3.58671 -1.92134 1.67583
lowerback 9.98009 0.216699 -2.41065
upperback 1.53615 0.0598297 0.710493
thorax -3.99959 0.0669401 2.08915
lowerneck -15.2914 -2.46667 -2.2435
upperneck 18.373 -3.10591 1.17143
head 8.28322 -1.50775 0.402918
rclavicle -7.85199e-015 -8.74653e-015
rhumerus -30.0122 -15.9436 -80.9815
rradius 28.0806
rwrist 3.60594
rhand -18.6846 19.654
rfingers 7.12502
rthumb 7.60963 -10.1891
lclavicle -7.85199e-015 -8.74653e-015
lhumerus -29.5652 -2.03071 82.1114
lradius 25.5737
lwrist 5.2229
lhand -26.8773 28.4603
lfingers 7.12502
lthumb -0.301589 58.4398
rfemur -29.2295 -3.84927 20.8202
rtibia 66.9647
rfoot -11.4924 -5.34969
rtoes -0.758215
lfemur -4.89716 -2.17121 -27.0482
ltibia 29.6105
lfoot -17.4301 0.0477442
ltoes 1.22634
291
root 0.807625 17.7611 23.0687 -3.45691 -2.11452 1.83153
lowerback 9.76295 0.229832 -2.76277
upperback 1.55911 0.0483322 0.770168
thorax -3.85454 0.0639418 2.35086
lowerneck -15.1418 -2.51996 -2.3497
upperneck 18.1049 -3.149 1.1496
head 8.16883 -1.53895 0.411086
rclavicle -1.11319e-014 -1.98785e-015
rhumerus -30.3105 -15.453 -81.0301
rradius 28.2939
rwrist 3.38463
rhand -18.7992 20.1739
rfingers 7.12502
rthumb 7.49893 -9.67321
lclavicle -1.11319e-014 -1.98785e-015
lhumerus -28.8999 -2.70303 82.1602
lradius 25.8561
lwrist 5.86623
lhand -26.9635 27.6288
lfingers 7.12502
lthumb -0.384883 57.6082
rfemur -30.0447 -3.46424 20.7986
rtibia 65.0409
rfoot -11.9255 -5.69285
rtoes -3.96131
lfemur -4.24429 -2.03876 -27.2504
ltibia 29.2454
lfoot -17.6556 0.220442
ltoes 1.32093
292
root 0.804221 17.7569 23.2454 -3.46874 -1.99948 2.19042
lowerback 9.78354 0.16739 -3.15942
upperback 1.55215 -0.0801406 0.691127
thorax -3.86475 0.0053481 2.50914
lowerneck -15.0371 -2.49858 -2.27705
upperneck 18.0613 -3.11639 1.04025
head 8.13185 -1.53028 0.367982
rclavicle -9.86469e-015 -1.19271e-014
rhumerus -30.5809 -15.2883 -81.0452
rradius 28.2737
rwrist 3.33491
rhand -18.6812 20.3968
rfingers 7.12502
rthumb 7.61283 -9.44614
lclavicle -9.86469e-015 -1.19271e-014
lhumerus -28.5411 -3.17962 82.0463
lradius 26.4278
lwrist 6.33165
lhand -26.9987 26.4758
lfingers 7.12502
lthumb -0.418871 56.4552
rfemur -30.5341 -3.45605 20.4831
rtibia 62.9404
rfoot -10.9744 -6.0377
rtoes -3.90433
lfemur -3.30142 -2.00927 -27.6963
ltibia 28.8229
lfoot -18.291 0.291536
ltoes 1.90493
293
root 0.808005 17.7544 23.4097 -3.35979 -1.73417 2.36702
lowerback 10.0206 0.0520082 -3.30209
upperback 1.40014 -0.258448 0.689125
thorax -4.14263 -0.0737619 2.61332
lowerneck -14.8788 -2.48287 -2.23229
upperneck 18.0498 -3.08049 0.901124
head 8.09608 -1.52516 0.32045
rclavicle -1.32937e-014 -1.74931e-014
rhumerus -31.0018 -15.114 -80.9435
rradius 28.2022
rwrist 3.40942
rhand -18.6667 20.7114
rfingers 7.12502
rthumb 7.62688 -9.13104
lclavicle -1.32937e-014 -1.74931e-014
lhumerus -28.4821 -3.61489 82.0093
lradius 27.2494
lwrist 6.658
lhand -27.1168 26.2167
lfingers 7.12502
lthumb -0.532925 56.1957
rfemur -31.0695 -3.57072 20.3463
rtibia 60.6769
rfoot -9.33554 -6.39401
rtoes 2.33284
lfemur -2.49567 -2.18238 -27.9735
ltibia 28.3092
lfoot -18.5212 0.349193
ltoes 1.21929
294
root 0.804505 17.7497 23.5811 -3.1449 -1.51944 2.33996
lowerback 10.0755 -0.0640939 -3.2983
upperback 1.24873 -0.41457 0.720229
thorax -4.32029 -0.145337 2.6661
lowerneck -14.6375 -2.47531 -2.27981
upperneck 17.8577 -3.08101 0.99048
head 7.99128 -1.52108 0.361732
rclavicle -9.31803e-015 6.75868e-015
rhumerus -31.3842 -15.2001 -80.8554
rradius 28.0768
rwrist 3.64927
rhand -18.6585 20.9445
rfingers 7.12502
rthumb 7.63474 -8.89765
lclavicle -9.31803e-015 6.75868e-015
lhumerus -28.3587 -4.02415 81.9158
lradius 28.0554
lwrist 6.902
lhand -27.3458 26.2351
lfingers 7.12502
lthumb -0.754028 56.2135
rfemur -31.5715 -3.56335 20.4397
rtibia 58.2251
rfoot -11.1841 -6.86754
rtoes -3.6303
lfemur -1.87885 -2.21429 -27.9538
ltibia 27.8339
lfoot -18.7544 0.122631
ltoes 2.036
